<svg xmlns="http://www.w3.org/2000/svg" version="1.1" xmlns:xlink="http://www.w3.org/1999/xlink" xmlns:svgjs="http://svgjs.dev/svgjs" width="1000" height="623" viewBox="0 0 1000 623"><g transform="matrix(1,0,0,1,-0.6060606060606233,0.2522267206477409)"><svg viewBox="0 0 396 247" data-background-color="#ff7476" preserveAspectRatio="xMidYMid meet" height="623" width="1000" xmlns="http://www.w3.org/2000/svg" xmlns:xlink="http://www.w3.org/1999/xlink"><g id="tight-bounds" transform="matrix(1,0,0,1,0.2400000000000091,-0.09999999999999432)"><svg viewBox="0 0 395.52 247.2" height="247.2" width="395.52"><g><svg></svg></g><g><svg viewBox="0 0 395.52 247.2" height="247.2" width="395.52"><g transform="matrix(1,0,0,1,39.55199999999999,103.72422199798183)"><svg viewBox="0 0 316.416 39.751556004036324" height="39.751556004036324" width="316.416"><g><svg viewBox="0 0 316.416 39.751556004036324" height="39.751556004036324" width="316.416"><g><svg viewBox="0 0 316.416 39.751556004036324" height="39.751556004036324" width="316.416"><g><svg viewBox="0 0 316.416 39.751556004036324" height="39.751556004036324" width="316.416"><g id="textblocktransform"><svg viewBox="0 0 316.416 39.751556004036324" height="39.751556004036324" width="316.416" id="textblock"><g><svg viewBox="0 0 316.416 39.751556004036324" height="39.751556004036324" width="316.416"><g transform="matrix(1,0,0,1,0,0)"><svg width="316.416" viewBox="-3.149999976158142 -42.099998474121094 397.3599853515625 50.79999923706055" height="39.751556004036324" data-palette-color="#ffffff"><path d="M37.35-10.75L37.35-10.75 38.95-8.3Q36.5 0.3 28.8 0.3L28.8 0.3Q27.05 0.3 25.78-0.35 24.5-1 23.85-1.9 23.2-2.8 22.8-4.2L22.8-4.2Q22.25-6.3 22.23-9.75 22.2-13.2 21.38-14.5 20.55-15.8 18.25-15.95L18.25-15.95 18.8-20.2Q18.9-20.2 18.95-20.2L18.95-20.2Q21.85-20.2 23.75-21.85L23.75-21.85Q25.8-23.7 25.8-26.6 25.8-29.5 23.08-31.5 20.35-33.5 16.05-33.5L16.05-33.5Q10.5-33.5 7.5-30.75L7.5-30.75Q5.9-29.25 5.9-27.15L5.9-27.15Q5.9-24.5 9.95-23.95L9.95-23.95 9.25-20.2Q6.2-20.35 3.85-22.25 1.5-24.15 1.5-27.15L1.5-27.15Q1.5-32.4 5.9-35.23 10.3-38.05 17.05-38.05L17.05-38.05Q21.4-38.05 24.7-37L24.7-37Q30.35-35.1 32.2-30.4L32.2-30.4Q32.8-28.75 32.8-27.73 32.8-26.7 32.8-26.35L32.8-26.35Q32.6-23.6 30.78-20.95 28.95-18.3 25.3-17.3L25.3-17.3Q27.5-16.85 28.3-15.4 29.1-13.95 29.15-11L29.15-11Q29.2-5.95 29.63-4.88 30.05-3.8 31.4-3.8L31.4-3.8Q35.05-3.8 37.35-10.75ZM6.7 0.3L6.7 0.3Q4.05 0.3 2.45-1.3 0.85-2.9 0.85-5.25L0.85-5.25Q0.85-11.35 9.8-15.45L9.8-15.45Q11.6-29.45 11.65-29.8L11.65-29.8Q13.75-31.15 16.4-31.15L16.4-31.15Q17.5-31.15 18.9-30.85L18.9-30.85 15.75-9.5Q14.25 0.3 6.7 0.3ZM4.55-5.85L4.55-5.85Q4.55-4.25 6.25-4.25L6.25-4.25Q8.25-4.25 8.8-7.85L8.8-7.85 9.25-11.25Q4.55-8.5 4.55-5.85ZM57.35 0.25L57.35 0.25Q52.75 0.25 51.25-2.95L51.25-2.95Q48.65 0.3 44.57 0.3 40.5 0.3 37.72-2.45 34.95-5.2 34.95-9.7L34.95-9.7Q34.95-16.25 38.8-20.15 42.65-24.05 48.55-24.05L48.55-24.05Q48.7-24.05 48.85-24.05L48.85-24.05Q51.35-24.05 53.45-23.2L53.45-23.2Q54.8-24.05 56.72-24.05 58.65-24.05 59.5-23.55L59.5-23.55Q59.05-19.85 58.55-16.28 58.05-12.7 57.85-11.2L57.85-11.2Q57.4-7.8 57.4-6.3L57.4-6.3Q57.4-4.3 59-4.3L59-4.3Q60.25-4.3 61.65-5.98 63.05-7.65 64.1-11.25L64.1-11.25Q65.55-9.95 66.1-8.35L66.1-8.35Q64.65-3.6 62.2-1.68 59.75 0.25 57.35 0.25ZM49.3-20.15L49.3-20.15Q46.1-20.15 44.22-17.73 42.35-15.3 42-10.5L42-10.5Q41.95-10.05 41.95-9.65L41.95-9.65Q41.95-7.2 43.12-5.75 44.3-4.3 46.15-4.3L46.15-4.3Q49.3-4.3 50.9-8.75L50.9-8.75 52.1-19.55Q50.65-20.15 49.3-20.15ZM76.4 0.45L76.4 0.45 62.5 0.15Q61.85 0.15 61.85-1.63 61.85-3.4 62.6-4.4L62.6-4.4Q63.35-6.4 66.75-10.25L66.75-10.25Q67.85-11.5 70.85-14.75 73.85-18 74.8-19.2L74.8-19.2 72.15-19.35Q71.4-17.55 69.97-16.43 68.55-15.3 66.8-15.3L66.8-15.3Q64.8-15.3 63.55-16.48 62.3-17.65 62.3-19.75 62.3-21.85 63.75-23.1 65.2-24.35 67.75-24.35L67.75-24.35 81.65-24.05Q82.3-24.05 82.3-22.35L82.3-22.35Q82.3-20.6 81.65-19.65L81.65-19.65Q81.05-18.55 79.92-17.32 78.8-16.1 76.65-14.08 74.5-12.05 73.65-11.2L73.65-11.2Q70.3-7.85 68.65-4.75L68.65-4.75 72-4.55Q72.75-6.35 74.17-7.48 75.6-8.6 77.35-8.6L77.35-8.6Q79.35-8.6 80.6-7.43 81.85-6.25 81.85-4.15 81.85-2.05 80.4-0.8 78.95 0.45 76.4 0.45ZM67.35-19.7L67.35-19.7Q65.6-19.7 65.6-18.55 65.6-17.4 66.9-17.4L66.9-17.4Q68.85-17.4 70-19.5L70-19.5 67.95-19.65Q67.65-19.7 67.35-19.7ZM76.8-4.2L76.8-4.2Q78.55-4.2 78.55-5.35 78.55-6.5 77.25-6.5L77.25-6.5Q75.3-6.5 74.15-4.4L74.15-4.4 76.2-4.25Q76.5-4.2 76.8-4.2ZM97.44-24.05L97.44-24.05Q102.04-24.05 105.12-21.1 108.19-18.15 108.19-13.9L108.19-13.9Q108.19-7.45 104.42-3.58 100.64 0.3 95.29 0.3 89.94 0.3 86.82-2.75 83.69-5.8 83.69-10.3L83.69-10.3Q83.69-16.6 87.54-20.3L87.54-20.3Q91.44-24.05 97.44-24.05ZM96.47-20Q94.09-20 92.49-17.3 90.89-14.6 90.74-10.5L90.74-10.5Q90.74-7.6 91.92-5.7 93.09-3.8 95.49-3.8 97.89-3.8 99.52-6.45 101.14-9.1 101.14-12.5 101.14-15.9 99.99-17.9L99.99-17.9Q98.84-20 96.47-20ZM125.09-17.5L125.09-17.5Q125.09-19.7 123.07-19.7 121.04-19.7 119.84-17.1L119.84-17.1Q125.24-12.85 125.24-7.55L125.24-7.55Q125.24-3.7 123.09-1.7 120.94 0.3 117.69 0.3 114.44 0.3 112.94-1.73 111.44-3.75 111.44-6.85L111.44-6.85Q111.44-7.8 111.49-8.25L111.49-8.25 113.24-23.5Q115.04-24.05 116.89-24.05L116.89-24.05Q119.94-24.05 119.94-21.8L119.94-21.8 119.94-21.7Q121.94-24.05 125.04-24.05L125.04-24.05Q127.29-24.05 128.54-23.03 129.79-22 129.79-20.3 129.79-18.6 128.52-17.53 127.24-16.45 125.19-16.45L125.19-16.45Q125.09-16.45 124.99-16.45L124.99-16.45Q125.09-17 125.09-17.5ZM121.99-7.8Q121.99-10.7 118.99-13.6L118.99-13.6Q118.09-6.4 118.09-6.35L118.09-6.35Q118.09-4.25 119.79-4.25L119.79-4.25Q121.99-4.25 121.99-7.8L121.99-7.8ZM151.79-15.3L151.79-15.3Q155.74-12.4 155.74-8.45 155.74-4.5 152.64-2.1 149.54 0.3 144.84 0.3L144.84 0.3Q141.79 0.3 139.76-1.23 137.74-2.75 137.74-5 137.74-7.25 139.24-8.58 140.74-9.9 142.99-10.2L142.99-10.2Q141.94-8.7 141.94-7.33 141.94-5.95 142.89-5.1L142.89-5.1Q143.84-4.25 145.29-4.25 146.74-4.25 147.69-5.33 148.64-6.4 148.64-7.8L148.64-7.8Q148.64-10.1 146.49-11.9L146.49-11.9Q145.19-12.95 143.69-13.88 142.19-14.8 142.09-14.85L142.09-14.85Q141.89-15 141.69-15.1L141.69-15.1Q140.79-14.05 139.09-12.23 137.39-10.4 136.39-9.3L136.39-9.3Q133.59-6.25 133.24-4.2L133.24-4.2Q133.14-3.8 133.14-2.68 133.14-1.55 133.81-0.35 134.49 0.85 135.44 1.45 136.39 2.05 137.31 2.43 138.24 2.8 138.91 2.95 139.59 3.1 139.59 3.15L139.59 3.15Q139.59 3.5 138.49 3.95L138.49 3.95Q136.44 4.7 134.21 4.7 131.99 4.7 129.89 3.1L129.89 3.1Q127.04 0.9 127.04-2.75L127.04-2.75Q127.04-5 128.19-7.2L128.19-7.2Q130.24-11.1 137.79-17.9L137.79-17.9Q135.94-19.75 135.94-21.85 135.94-23.95 137.51-25.4 139.09-26.85 141.24-26.85L141.24-26.85Q143.19-26.85 144.64-25.3L144.64-25.3Q145.59-24.25 145.59-22.65 145.59-21.05 144.54-19.05L144.54-19.05Q149.89-16.65 151.79-15.3ZM140.94-20.95L140.94-20.95Q142.14-22.2 142.14-22.75L142.14-22.75Q142.14-24 141.04-24.1L141.04-24.1Q139.79-24.1 139.79-22.7L139.79-22.7Q139.79-21.85 140.94-20.95ZM195.63-30.8Q196.18-34.65 197.83-36.35 199.48-38.05 202.18-38.05 204.88-38.05 206.16-36.48 207.43-34.9 207.43-33.3L207.43-33.3Q207.43-32.8 207.33-32.3L207.33-32.3Q206.23-26.75 199.98-23.65L199.98-23.65 196.48 0 188.08 0 182.13-26.35 179.38-6.85Q178.83-3.15 177.11-1.4 175.38 0.35 173.08 0.35 170.78 0.35 169.26-1 167.73-2.35 167.38-4.85L167.38-4.85Q167.33-5.25 167.33-5.65L167.33-5.65Q167.33-10.6 174.78-14.15L174.78-14.15 176.93-30.25Q178.18-30.8 179.11-30.8 180.03-30.8 180.68-30.65L180.68-30.65Q179.53-32.45 177.03-32.45 174.53-32.45 172.63-29.85L172.63-29.85 171.68-34.15Q172.63-35.45 175.01-36.77 177.38-38.1 180.26-38.1 183.13-38.1 185.13-36.38 187.13-34.65 188.03-30.6L188.03-30.6 192.73-10.8 195.63-30.8ZM200.63-27.95L200.63-27.95Q203.73-30.15 203.73-32.05L203.73-32.05Q203.73-32.4 203.48-32.85 203.23-33.3 202.73-33.3L202.73-33.3Q201.78-33.3 201.43-32.25L201.43-32.25Q200.93-30.8 200.63-27.95ZM174.28-10Q170.83-8.05 170.83-6.2 170.83-4.35 172.18-4.35L172.18-4.35Q173.08-4.35 173.48-5.53 173.88-6.7 174.23-9.75L174.23-9.75 174.28-10ZM250.88-10.75L250.88-10.75 252.48-8.3Q250.03 0.3 242.33 0.3L242.33 0.3Q240.58 0.3 239.3-0.35 238.03-1 237.38-1.9 236.73-2.8 236.33-4.2L236.33-4.2Q235.78-6.3 235.75-9.75 235.73-13.2 234.9-14.5 234.08-15.8 231.78-15.95L231.78-15.95 232.33-20.2Q232.43-20.2 232.48-20.2L232.48-20.2Q235.38-20.2 237.28-21.85L237.28-21.85Q239.33-23.7 239.33-26.6 239.33-29.5 236.6-31.5 233.88-33.5 229.58-33.5L229.58-33.5Q224.03-33.5 221.03-30.75L221.03-30.75Q219.43-29.25 219.43-27.15L219.43-27.15Q219.43-24.5 223.48-23.95L223.48-23.95 222.78-20.2Q219.73-20.35 217.38-22.25 215.03-24.15 215.03-27.15L215.03-27.15Q215.03-32.4 219.43-35.23 223.83-38.05 230.58-38.05L230.58-38.05Q234.93-38.05 238.23-37L238.23-37Q243.88-35.1 245.73-30.4L245.73-30.4Q246.33-28.75 246.33-27.73 246.33-26.7 246.33-26.35L246.33-26.35Q246.13-23.6 244.3-20.95 242.48-18.3 238.83-17.3L238.83-17.3Q241.03-16.85 241.83-15.4 242.63-13.95 242.68-11L242.68-11Q242.73-5.95 243.15-4.88 243.58-3.8 244.93-3.8L244.93-3.8Q248.58-3.8 250.88-10.75ZM220.23 0.3L220.23 0.3Q217.58 0.3 215.98-1.3 214.38-2.9 214.38-5.25L214.38-5.25Q214.38-11.35 223.33-15.45L223.33-15.45Q225.13-29.45 225.18-29.8L225.18-29.8Q227.28-31.15 229.93-31.15L229.93-31.15Q231.03-31.15 232.43-30.85L232.43-30.85 229.28-9.5Q227.78 0.3 220.23 0.3ZM218.08-5.85L218.08-5.85Q218.08-4.25 219.78-4.25L219.78-4.25Q221.78-4.25 222.33-7.85L222.33-7.85 222.78-11.25Q218.08-8.5 218.08-5.85ZM257.93-11.2Q261.03-11.85 262.55-13.7 264.08-15.55 264.08-17.28 264.08-19 263.15-19.63 262.23-20.25 261.13-20.25L261.13-20.25Q258.78-20.25 257-17.63 255.23-15 255.23-11.38 255.23-7.75 256.95-5.98 258.68-4.2 261.23-4.2L261.23-4.2Q264.98-4.2 268.43-6.8 271.88-9.4 274.03-13.6L274.03-13.6Q275.13-12.55 276.03-11L276.03-11Q274.38-7.25 270.18-3.65L270.18-3.65Q268.08-1.9 265.2-0.8 262.33 0.3 259.28 0.3L259.28 0.3Q254.28 0.3 251.38-2.75L251.38-2.75Q248.28-6.05 248.28-11.2 248.28-16.35 252.15-20.2 256.03-24.05 261.43-24.05L261.43-24.05Q265.28-24.05 267.68-22.38 270.08-20.7 270.13-17.85L270.13-17.85Q270.13-14 267.05-11.6 263.98-9.2 258.63-8.25L258.63-8.25 257.93-11.2ZM290.75-8.95Q289.17-4.9 286.25-2.33 283.32 0.25 279.57 0.25 275.82 0.25 273.95-2.23 272.07-4.7 272.07-7.9L272.07-7.9Q272.07-8.55 272.12-9.2L272.12-9.2 273.82-23.45Q275.42-24.05 277.22-24.05L277.22-24.05Q280.52-24.05 280.52-21.6L280.52-21.6Q280.52-21.5 279.7-14.93 278.87-8.35 278.87-7.3L278.87-7.3Q278.87-4.45 281.62-4.45L281.62-4.45Q283.97-4.45 285.57-7.1L285.57-7.1Q288.37-11.9 288.52-17.95L288.52-17.95 288.07-17.95Q285.97-17.95 284.87-18.9L284.87-18.9Q283.62-20 283.62-21.55 283.62-23.1 284.57-24.05L284.57-24.05Q285.72-25.05 287.32-25.05L287.32-25.05Q291.12-25.05 292.07-21.1L292.07-21.1Q293.57-21.3 294.22-21.5L294.22-21.5 294.22-18.65 292.37-18.35 292.37-17.5Q292.32-13 290.75-8.95ZM286.47-21.55L286.47-21.55Q286.47-20.7 287.92-20.7L287.92-20.7Q288.07-20.7 288.22-20.7L288.22-20.7Q287.87-22.05 287.17-22.05 286.47-22.05 286.47-21.55ZM298.42-36.83Q299.57-38 301.22-38 302.87-38 304.05-36.83 305.22-35.65 305.22-34 305.22-32.35 304.05-31.2 302.87-30.05 301.22-30.05 299.57-30.05 298.42-31.2 297.27-32.35 297.27-34 297.27-35.65 298.42-36.83ZM296.37-22.15Q296.87-23.05 298.27-23.53 299.67-24 301.05-24 302.42-24 303.47-23.65L303.47-23.65Q301.52-8.6 301.52-8.45L301.52-8.45Q301.27-7.45 301.27-6.78 301.27-6.1 301.37-5.6L301.37-5.6Q301.57-4.3 303.2-4.3 304.82-4.3 306.2-6.43 307.57-8.55 308.27-11.25L308.27-11.25Q308.62-11.05 309.37-10.05 310.12-9.05 310.27-8.55L310.27-8.55Q309.27-4.55 306.87-2.1L306.87-2.1Q304.47 0.35 301.12 0.35 297.77 0.35 296.15-1.3 294.52-2.95 294.52-5.55L294.52-5.55Q294.52-6.1 294.57-6.7L294.57-6.7 296.37-22.15ZM315.47-11.2Q318.57-11.85 320.09-13.7 321.62-15.55 321.62-17.28 321.62-19 320.69-19.63 319.77-20.25 318.67-20.25L318.67-20.25Q316.32-20.25 314.54-17.63 312.77-15 312.77-11.38 312.77-7.75 314.49-5.98 316.22-4.2 318.77-4.2L318.77-4.2Q322.52-4.2 325.97-6.8 329.42-9.4 331.57-13.6L331.57-13.6Q332.67-12.55 333.57-11L333.57-11Q331.92-7.25 327.72-3.65L327.72-3.65Q325.62-1.9 322.74-0.8 319.87 0.3 316.82 0.3L316.82 0.3Q311.82 0.3 308.92-2.75L308.92-2.75Q305.82-6.05 305.82-11.2 305.82-16.35 309.69-20.2 313.57-24.05 318.97-24.05L318.97-24.05Q322.82-24.05 325.22-22.38 327.62-20.7 327.67-17.85L327.67-17.85Q327.67-14 324.59-11.6 321.52-9.2 316.17-8.25L316.17-8.25 315.47-11.2ZM349.67-7.95L349.67-7.95Q349.67-4.35 352.72-4.35L352.72-4.35Q352.82-4.35 352.87-4.35L352.87-4.35Q354.27-4.35 355.37-5.85 356.47-7.35 357.02-9.6L357.02-9.6Q358.22-14.2 358.22-17.95L358.22-17.95 357.77-17.95Q355.67-17.95 354.52-18.9L354.52-18.9Q353.32-20 353.32-21.55 353.32-23.1 354.27-24.05L354.27-24.05Q355.42-25.1 357.12-25.1L357.12-25.1Q360.82-25.1 362.12-21.3L362.12-21.3Q365.62-22.15 369.52-23.65L369.52-23.65 369.52-20.8Q365.82-19.4 362.62-18.65L362.62-18.65Q362.67-18.25 362.67-17.5L362.67-17.5Q362.47-7.15 357.82-2.5L357.82-2.5Q355.07 0.25 350.69 0.25 346.32 0.25 344.17-3.45L344.17-3.45Q341.72 0.3 336.67 0.3L336.67 0.3Q333.67 0.3 331.74-1.83 329.82-3.95 329.82-6.85L329.82-6.85Q329.82-7.35 329.87-8.05L329.87-8.05Q330.92-16.75 331.62-23.45L331.62-23.45Q333.42-24.05 334.77-24.05L334.77-24.05Q338.32-24.05 338.32-21.6L338.32-21.6Q338.32-20.65 337.57-15.05L337.57-15.05Q336.62-8 336.62-7.13 336.62-6.25 337.29-5.4 337.97-4.55 339.24-4.55 340.52-4.55 341.52-5.7 342.52-6.85 342.97-8.5L342.97-8.5 344.72-23.45Q346.32-24.05 348.12-24.05L348.12-24.05Q351.37-24.05 351.37-21.6L351.37-21.6Q351.37-20.7 350.67-15.75L350.67-15.75Q349.67-8.75 349.67-7.95ZM356.17-21.55L356.17-21.55Q356.17-20.7 357.62-20.7L357.62-20.7Q357.77-20.7 357.92-20.7L357.92-20.7Q357.57-22.05 356.87-22.05 356.17-22.05 356.17-21.55ZM386.26-15.3L386.26-15.3Q390.21-12.4 390.21-8.45 390.21-4.5 387.11-2.1 384.01 0.3 379.31 0.3L379.31 0.3Q376.26 0.3 374.24-1.23 372.21-2.75 372.21-5 372.21-7.25 373.71-8.58 375.21-9.9 377.46-10.2L377.46-10.2Q376.41-8.7 376.41-7.33 376.41-5.95 377.36-5.1L377.36-5.1Q378.31-4.25 379.76-4.25 381.21-4.25 382.16-5.33 383.11-6.4 383.11-7.8L383.11-7.8Q383.11-10.1 380.96-11.9L380.96-11.9Q379.66-12.95 378.16-13.88 376.66-14.8 376.56-14.85L376.56-14.85Q376.36-15 376.16-15.1L376.16-15.1Q375.26-14.05 373.56-12.23 371.86-10.4 370.86-9.3L370.86-9.3Q368.06-6.25 367.71-4.2L367.71-4.2Q367.61-3.8 367.61-2.68 367.61-1.55 368.29-0.35 368.96 0.85 369.91 1.45 370.86 2.05 371.79 2.43 372.71 2.8 373.39 2.95 374.06 3.1 374.06 3.15L374.06 3.15Q374.06 3.5 372.96 3.95L372.96 3.95Q370.91 4.7 368.69 4.7 366.46 4.7 364.36 3.1L364.36 3.1Q361.51 0.9 361.51-2.75L361.51-2.75Q361.51-5 362.66-7.2L362.66-7.2Q364.71-11.1 372.26-17.9L372.26-17.9Q370.41-19.75 370.41-21.85 370.41-23.95 371.99-25.4 373.56-26.85 375.71-26.85L375.71-26.85Q377.66-26.85 379.11-25.3L379.11-25.3Q380.06-24.25 380.06-22.65 380.06-21.05 379.01-19.05L379.01-19.05Q384.36-16.65 386.26-15.3ZM375.41-20.95L375.41-20.95Q376.61-22.2 376.61-22.75L376.61-22.75Q376.61-24 375.51-24.1L375.51-24.1Q374.26-24.1 374.26-22.7L374.26-22.7Q374.26-21.85 375.41-20.95Z" opacity="1" transform="matrix(1,0,0,1,0,0)" fill="#ffffff" class="undefined-text-0" data-fill-palette-color="primary" id="text-0"></path></svg></g></svg></g></svg></g></svg></g></svg></g></svg></g></svg></g><g mask="url(&quot;#f955664d-50bc-491d-851c-ee5216f6cc45&quot;)"><g transform="matrix(4.66928420689765, 0, 0, 4.66928420689765, 1, 24.53763479872076)"><svg xmlns="http://www.w3.org/2000/svg" xmlns:xlink="http://www.w3.org/1999/xlink" version="1.1" x="0" y="0" viewBox="7.861016750335693 28.784114837646484 84.2784423828125 42.43149948120117" enable-background="new 0 0 100 100" xml:space="preserve" height="42.43149948120117" width="84.2784423828125" class="icon-none" data-fill-palette-color="accent" id="none"><path d="M92.116 41.212c-0.001-0.524 0.024-1.051-0.018-1.572-0.1-1.225-0.966-2.019-2.1-2.003-1.12 0.016-2.242-0.004-3.364-0.007-0.727-0.001-1.262-0.302-1.494-1.011-0.26-0.798-0.008-1.479 0.712-1.929 0.317-0.199 0.563-0.416 0.563-0.815-0.001-1.249 0.031-2.499-0.022-3.745-0.037-0.872-0.537-1.292-1.406-1.338-0.25-0.013-0.5-0.006-0.75-0.006-22.776 0-45.553 0-68.33 0-0.299 0-0.601-0.01-0.898 0.016-0.947 0.083-1.391 0.545-1.406 1.5-0.019 1.124 0.01 2.248-0.013 3.372-0.011 0.522 0.113 0.892 0.624 1.15 0.708 0.358 0.813 1.033 0.701 1.744-0.111 0.705-0.629 0.97-1.264 1.084-1.166 0.21-2.342 0.125-3.512 0.082-1.426-0.053-2.257 0.632-2.261 2.051C7.859 46.602 7.858 53.42 7.865 60.238c0.001 1.378 0.768 2.117 2.149 2.135 1.124 0.014 2.248-0.005 3.371 0.016 0.72 0.013 1.274 0.34 1.455 1.063 0.179 0.714 0.003 1.365-0.692 1.733-0.469 0.248-0.61 0.594-0.598 1.094 0.023 0.973 0.007 1.947 0.005 2.922-0.004 1.713 0.29 2.012 1.993 2.012 11.488 0 22.977 0 34.465 0 11.413 0 22.827 0 34.239 0 0.275 0 0.551 0.008 0.824-0.004 0.897-0.043 1.349-0.463 1.366-1.346 0.024-1.248 0.003-2.496 0.009-3.746 0.002-0.384-0.141-0.645-0.479-0.857-0.8-0.504-1.049-1.125-0.821-1.887 0.184-0.616 0.784-0.982 1.677-0.992 1.073-0.012 2.147 0.008 3.221-0.008 1.188-0.018 1.883-0.615 2.056-1.758 0.041-0.27 0.034-0.548 0.034-0.822C92.133 53.6 92.125 47.406 92.116 41.212zM85.027 54.881c-0.219 0.923-0.629 1.324-1.305 1.289-0.811-0.043-1.078-0.627-1.222-1.299-0.141-0.659-0.282-1.32-0.374-1.987-0.078-0.562-0.379-0.708-0.91-0.755-0.986-0.084-1.697 0.206-2.295 1.043-0.605 0.848-1.35 1.6-2.145 2.291-1.187 1.03-2.303 1.037-3.469-0.03-0.887-0.812-1.646-1.74-2.416-2.658-0.478-0.569-1.807-0.874-2.464-0.557-0.344 0.166-0.38 0.497-0.437 0.819-0.115 0.663-0.211 1.332-0.359 1.988-0.141 0.621-0.443 1.141-1.182 1.145-0.742 0.002-1.141-0.447-1.293-1.126-0.154-0.682-0.289-1.368-0.4-2.058-0.094-0.588-0.369-0.855-0.999-0.851-2.848 0.022-5.695 0.017-8.544 0.003-0.477-0.002-0.791 0.168-1.042 0.574-1.878 3.046-6.338 3.172-8.325 0.021-0.271-0.431-0.602-0.599-1.106-0.597-2.823 0.018-5.646 0.025-8.468-0.003-0.691-0.007-1.001 0.265-1.092 0.927-0.096 0.69-0.225 1.379-0.386 2.059-0.145 0.611-0.517 1.044-1.194 1.045-0.674 0.002-1.058-0.417-1.202-1.033-0.165-0.703-0.29-1.418-0.402-2.131-0.092-0.584-0.365-0.836-0.991-0.873-0.926-0.055-1.625 0.16-2.171 0.979-0.425 0.637-1.011 1.168-1.534 1.738-2.012 2.195-3.322 1.518-4.938-0.189-0.583-0.615-1.114-1.279-1.678-1.913-0.48-0.54-1.778-0.819-2.41-0.541-0.297 0.132-0.354 0.405-0.409 0.673-0.14 0.685-0.249 1.376-0.403 2.057-0.146 0.639-0.41 1.205-1.188 1.24-0.649 0.031-1.118-0.379-1.305-1.203-0.751-3.311-0.756-6.625-0.02-9.94 0.155-0.698 0.517-1.208 1.303-1.21 0.791-0.003 1.054 0.576 1.198 1.214 0.143 0.632 0.25 1.273 0.344 1.915 0.089 0.608 0.363 0.874 1.029 0.921 0.973 0.068 1.679-0.221 2.233-1.021 0.614-0.888 1.43-1.601 2.206-2.342 1.027-0.981 2.204-1.002 3.294-0.072 0.859 0.732 1.619 1.577 2.256 2.496 0.678 0.977 1.591 0.981 2.584 0.901 0.392-0.032 0.458-0.325 0.517-0.629 0.145-0.759 0.266-1.524 0.445-2.276 0.159-0.667 0.554-1.137 1.307-1.102 0.726 0.034 1.023 0.553 1.159 1.179 0.132 0.609 0.265 1.223 0.327 1.842 0.069 0.689 0.345 1.018 1.088 1.011 2.848-0.027 5.696-0.017 8.543-0.004 0.477 0.002 0.759-0.172 1.024-0.582 1.978-3.061 6.191-3.126 8.232-0.124 0.352 0.518 0.738 0.718 1.354 0.712 2.772-0.026 5.546-0.023 8.318-0.003 0.634 0.004 0.966-0.167 1.015-0.865 0.047-0.692 0.158-1.387 0.381-2.057 0.219-0.654 0.604-1.111 1.33-1.107 0.771 0.004 1.07 0.554 1.205 1.21 0.134 0.66 0.241 1.326 0.341 1.992 0.082 0.553 0.348 0.803 0.94 0.834 0.936 0.049 1.658-0.133 2.246-0.977 0.566-0.811 1.306-1.509 2.016-2.209 1.256-1.238 2.481-1.223 3.736-0.008 0.881 0.852 1.689 1.769 2.486 2.7 0.381 0.445 1.875 0.678 2.373 0.394 0.256-0.146 0.263-0.401 0.314-0.645 0.15-0.707 0.138-1.44 0.395-2.131 0.244-0.655 0.575-1.196 1.365-1.159 0.771 0.036 1.031 0.619 1.174 1.258 0.365 1.638 0.466 3.307 0.549 4.973C85.486 51.675 85.402 53.296 85.027 54.881z" fill="#6b7280" data-fill-palette-color="accent"></path></svg></g></g><mask id="f955664d-50bc-491d-851c-ee5216f6cc45"><rect width="640" height="400" fill="white"></rect><g transform="matrix(1,0,0,1,39.55199999999999,103.72422199798183)"><svg viewBox="0 0 316.416 39.751556004036324" height="39.751556004036324" width="316.416"><g><svg viewBox="0 0 316.416 39.751556004036324" height="39.751556004036324" width="316.416"><g><svg viewBox="0 0 316.416 39.751556004036324" height="39.751556004036324" width="316.416"><g><svg viewBox="0 0 316.416 39.751556004036324" height="39.751556004036324" width="316.416"><g id="SvgjsG2077"><svg viewBox="0 0 316.416 39.751556004036324" height="39.751556004036324" width="316.416" id="SvgjsSvg2076"><g><svg viewBox="0 0 316.416 39.751556004036324" height="39.751556004036324" width="316.416"><g transform="matrix(1,0,0,1,0,0)"><svg width="316.416" viewBox="-3.149999976158142 -42.099998474121094 397.3599853515625 50.79999923706055" height="39.751556004036324" data-palette-color="#ffffff"><path d="M37.35-10.75L37.35-10.75 38.95-8.3Q36.5 0.3 28.8 0.3L28.8 0.3Q27.05 0.3 25.78-0.35 24.5-1 23.85-1.9 23.2-2.8 22.8-4.2L22.8-4.2Q22.25-6.3 22.23-9.75 22.2-13.2 21.38-14.5 20.55-15.8 18.25-15.95L18.25-15.95 18.8-20.2Q18.9-20.2 18.95-20.2L18.95-20.2Q21.85-20.2 23.75-21.85L23.75-21.85Q25.8-23.7 25.8-26.6 25.8-29.5 23.08-31.5 20.35-33.5 16.05-33.5L16.05-33.5Q10.5-33.5 7.5-30.75L7.5-30.75Q5.9-29.25 5.9-27.15L5.9-27.15Q5.9-24.5 9.95-23.95L9.95-23.95 9.25-20.2Q6.2-20.35 3.85-22.25 1.5-24.15 1.5-27.15L1.5-27.15Q1.5-32.4 5.9-35.23 10.3-38.05 17.05-38.05L17.05-38.05Q21.4-38.05 24.7-37L24.7-37Q30.35-35.1 32.2-30.4L32.2-30.4Q32.8-28.75 32.8-27.73 32.8-26.7 32.8-26.35L32.8-26.35Q32.6-23.6 30.78-20.95 28.95-18.3 25.3-17.3L25.3-17.3Q27.5-16.85 28.3-15.4 29.1-13.95 29.15-11L29.15-11Q29.2-5.95 29.63-4.88 30.05-3.8 31.4-3.8L31.4-3.8Q35.05-3.8 37.35-10.75ZM6.7 0.3L6.7 0.3Q4.05 0.3 2.45-1.3 0.85-2.9 0.85-5.25L0.85-5.25Q0.85-11.35 9.8-15.45L9.8-15.45Q11.6-29.45 11.65-29.8L11.65-29.8Q13.75-31.15 16.4-31.15L16.4-31.15Q17.5-31.15 18.9-30.85L18.9-30.85 15.75-9.5Q14.25 0.3 6.7 0.3ZM4.55-5.85L4.55-5.85Q4.55-4.25 6.25-4.25L6.25-4.25Q8.25-4.25 8.8-7.85L8.8-7.85 9.25-11.25Q4.55-8.5 4.55-5.85ZM57.35 0.25L57.35 0.25Q52.75 0.25 51.25-2.95L51.25-2.95Q48.65 0.3 44.57 0.3 40.5 0.3 37.72-2.45 34.95-5.2 34.95-9.7L34.95-9.7Q34.95-16.25 38.8-20.15 42.65-24.05 48.55-24.05L48.55-24.05Q48.7-24.05 48.85-24.05L48.85-24.05Q51.35-24.05 53.45-23.2L53.45-23.2Q54.8-24.05 56.72-24.05 58.65-24.05 59.5-23.55L59.5-23.55Q59.05-19.85 58.55-16.28 58.05-12.7 57.85-11.2L57.85-11.2Q57.4-7.8 57.4-6.3L57.4-6.3Q57.4-4.3 59-4.3L59-4.3Q60.25-4.3 61.65-5.98 63.05-7.65 64.1-11.25L64.1-11.25Q65.55-9.95 66.1-8.35L66.1-8.35Q64.65-3.6 62.2-1.68 59.75 0.25 57.35 0.25ZM49.3-20.15L49.3-20.15Q46.1-20.15 44.22-17.73 42.35-15.3 42-10.5L42-10.5Q41.95-10.05 41.95-9.65L41.95-9.65Q41.95-7.2 43.12-5.75 44.3-4.3 46.15-4.3L46.15-4.3Q49.3-4.3 50.9-8.75L50.9-8.75 52.1-19.55Q50.65-20.15 49.3-20.15ZM76.4 0.45L76.4 0.45 62.5 0.15Q61.85 0.15 61.85-1.63 61.85-3.4 62.6-4.4L62.6-4.4Q63.35-6.4 66.75-10.25L66.75-10.25Q67.85-11.5 70.85-14.75 73.85-18 74.8-19.2L74.8-19.2 72.15-19.35Q71.4-17.55 69.97-16.43 68.55-15.3 66.8-15.3L66.8-15.3Q64.8-15.3 63.55-16.48 62.3-17.65 62.3-19.75 62.3-21.85 63.75-23.1 65.2-24.35 67.75-24.35L67.75-24.35 81.65-24.05Q82.3-24.05 82.3-22.35L82.3-22.35Q82.3-20.6 81.65-19.65L81.65-19.65Q81.05-18.55 79.92-17.32 78.8-16.1 76.65-14.08 74.5-12.05 73.65-11.2L73.65-11.2Q70.3-7.85 68.65-4.75L68.65-4.75 72-4.55Q72.75-6.35 74.17-7.48 75.6-8.6 77.35-8.6L77.35-8.6Q79.35-8.6 80.6-7.43 81.85-6.25 81.85-4.15 81.85-2.05 80.4-0.8 78.95 0.45 76.4 0.45ZM67.35-19.7L67.35-19.7Q65.6-19.7 65.6-18.55 65.6-17.4 66.9-17.4L66.9-17.4Q68.85-17.4 70-19.5L70-19.5 67.95-19.65Q67.65-19.7 67.35-19.7ZM76.8-4.2L76.8-4.2Q78.55-4.2 78.55-5.35 78.55-6.5 77.25-6.5L77.25-6.5Q75.3-6.5 74.15-4.4L74.15-4.4 76.2-4.25Q76.5-4.2 76.8-4.2ZM97.44-24.05L97.44-24.05Q102.04-24.05 105.12-21.1 108.19-18.15 108.19-13.9L108.19-13.9Q108.19-7.45 104.42-3.58 100.64 0.3 95.29 0.3 89.94 0.3 86.82-2.75 83.69-5.8 83.69-10.3L83.69-10.3Q83.69-16.6 87.54-20.3L87.54-20.3Q91.44-24.05 97.44-24.05ZM96.47-20Q94.09-20 92.49-17.3 90.89-14.6 90.74-10.5L90.74-10.5Q90.74-7.6 91.92-5.7 93.09-3.8 95.49-3.8 97.89-3.8 99.52-6.45 101.14-9.1 101.14-12.5 101.14-15.9 99.99-17.9L99.99-17.9Q98.84-20 96.47-20ZM125.09-17.5L125.09-17.5Q125.09-19.7 123.07-19.7 121.04-19.7 119.84-17.1L119.84-17.1Q125.24-12.85 125.24-7.55L125.24-7.55Q125.24-3.7 123.09-1.7 120.94 0.3 117.69 0.3 114.44 0.3 112.94-1.73 111.44-3.75 111.44-6.85L111.44-6.85Q111.44-7.8 111.49-8.25L111.49-8.25 113.24-23.5Q115.04-24.05 116.89-24.05L116.89-24.05Q119.94-24.05 119.94-21.8L119.94-21.8 119.94-21.7Q121.94-24.05 125.04-24.05L125.04-24.05Q127.29-24.05 128.54-23.03 129.79-22 129.79-20.3 129.79-18.6 128.52-17.53 127.24-16.45 125.19-16.45L125.19-16.45Q125.09-16.45 124.99-16.45L124.99-16.45Q125.09-17 125.09-17.5ZM121.99-7.8Q121.99-10.7 118.99-13.6L118.99-13.6Q118.09-6.4 118.09-6.35L118.09-6.35Q118.09-4.25 119.79-4.25L119.79-4.25Q121.99-4.25 121.99-7.8L121.99-7.8ZM151.79-15.3L151.79-15.3Q155.74-12.4 155.74-8.45 155.74-4.5 152.64-2.1 149.54 0.3 144.84 0.3L144.84 0.3Q141.79 0.3 139.76-1.23 137.74-2.75 137.74-5 137.74-7.25 139.24-8.58 140.74-9.9 142.99-10.2L142.99-10.2Q141.94-8.7 141.94-7.33 141.94-5.95 142.89-5.1L142.89-5.1Q143.84-4.25 145.29-4.25 146.74-4.25 147.69-5.33 148.64-6.4 148.64-7.8L148.64-7.8Q148.64-10.1 146.49-11.9L146.49-11.9Q145.19-12.95 143.69-13.88 142.19-14.8 142.09-14.85L142.09-14.85Q141.89-15 141.69-15.1L141.69-15.1Q140.79-14.05 139.09-12.23 137.39-10.4 136.39-9.3L136.39-9.3Q133.59-6.25 133.24-4.2L133.24-4.2Q133.14-3.8 133.14-2.68 133.14-1.55 133.81-0.35 134.49 0.85 135.44 1.45 136.39 2.05 137.31 2.43 138.24 2.8 138.91 2.95 139.59 3.1 139.59 3.15L139.59 3.15Q139.59 3.5 138.49 3.95L138.49 3.95Q136.44 4.7 134.21 4.7 131.99 4.7 129.89 3.1L129.89 3.1Q127.04 0.9 127.04-2.75L127.04-2.75Q127.04-5 128.19-7.2L128.19-7.2Q130.24-11.1 137.79-17.9L137.79-17.9Q135.94-19.75 135.94-21.85 135.94-23.95 137.51-25.4 139.09-26.85 141.24-26.85L141.24-26.85Q143.19-26.85 144.64-25.3L144.64-25.3Q145.59-24.25 145.59-22.65 145.59-21.05 144.54-19.05L144.54-19.05Q149.89-16.65 151.79-15.3ZM140.94-20.95L140.94-20.95Q142.14-22.2 142.14-22.75L142.14-22.75Q142.14-24 141.04-24.1L141.04-24.1Q139.79-24.1 139.79-22.7L139.79-22.7Q139.79-21.85 140.94-20.95ZM195.63-30.8Q196.18-34.65 197.83-36.35 199.48-38.05 202.18-38.05 204.88-38.05 206.16-36.48 207.43-34.9 207.43-33.3L207.43-33.3Q207.43-32.8 207.33-32.3L207.33-32.3Q206.23-26.75 199.98-23.65L199.98-23.65 196.48 0 188.08 0 182.13-26.35 179.38-6.85Q178.83-3.15 177.11-1.4 175.38 0.35 173.08 0.35 170.78 0.35 169.26-1 167.73-2.35 167.38-4.85L167.38-4.85Q167.33-5.25 167.33-5.65L167.33-5.65Q167.33-10.6 174.78-14.15L174.78-14.15 176.93-30.25Q178.18-30.8 179.11-30.8 180.03-30.8 180.68-30.65L180.68-30.65Q179.53-32.45 177.03-32.45 174.53-32.45 172.63-29.85L172.63-29.85 171.68-34.15Q172.63-35.45 175.01-36.77 177.38-38.1 180.26-38.1 183.13-38.1 185.13-36.38 187.13-34.65 188.03-30.6L188.03-30.6 192.73-10.8 195.63-30.8ZM200.63-27.95L200.63-27.95Q203.73-30.15 203.73-32.05L203.73-32.05Q203.73-32.4 203.48-32.85 203.23-33.3 202.73-33.3L202.73-33.3Q201.78-33.3 201.43-32.25L201.43-32.25Q200.93-30.8 200.63-27.95ZM174.28-10Q170.83-8.05 170.83-6.2 170.83-4.35 172.18-4.35L172.18-4.35Q173.08-4.35 173.48-5.53 173.88-6.7 174.23-9.75L174.23-9.75 174.28-10ZM250.88-10.75L250.88-10.75 252.48-8.3Q250.03 0.3 242.33 0.3L242.33 0.3Q240.58 0.3 239.3-0.35 238.03-1 237.38-1.9 236.73-2.8 236.33-4.2L236.33-4.2Q235.78-6.3 235.75-9.75 235.73-13.2 234.9-14.5 234.08-15.8 231.78-15.95L231.78-15.95 232.33-20.2Q232.43-20.2 232.48-20.2L232.48-20.2Q235.38-20.2 237.28-21.85L237.28-21.85Q239.33-23.7 239.33-26.6 239.33-29.5 236.6-31.5 233.88-33.5 229.58-33.5L229.58-33.5Q224.03-33.5 221.03-30.75L221.03-30.75Q219.43-29.25 219.43-27.15L219.43-27.15Q219.43-24.5 223.48-23.95L223.48-23.95 222.78-20.2Q219.73-20.35 217.38-22.25 215.03-24.15 215.03-27.15L215.03-27.15Q215.03-32.4 219.43-35.23 223.83-38.05 230.58-38.05L230.58-38.05Q234.93-38.05 238.23-37L238.23-37Q243.88-35.1 245.73-30.4L245.73-30.4Q246.33-28.75 246.33-27.73 246.33-26.7 246.33-26.35L246.33-26.35Q246.13-23.6 244.3-20.95 242.48-18.3 238.83-17.3L238.83-17.3Q241.03-16.85 241.83-15.4 242.63-13.95 242.68-11L242.68-11Q242.73-5.95 243.15-4.88 243.58-3.8 244.93-3.8L244.93-3.8Q248.58-3.8 250.88-10.75ZM220.23 0.3L220.23 0.3Q217.58 0.3 215.98-1.3 214.38-2.9 214.38-5.25L214.38-5.25Q214.38-11.35 223.33-15.45L223.33-15.45Q225.13-29.45 225.18-29.8L225.18-29.8Q227.28-31.15 229.93-31.15L229.93-31.15Q231.03-31.15 232.43-30.85L232.43-30.85 229.28-9.5Q227.78 0.3 220.23 0.3ZM218.08-5.85L218.08-5.85Q218.08-4.25 219.78-4.25L219.78-4.25Q221.78-4.25 222.33-7.85L222.33-7.85 222.78-11.25Q218.08-8.5 218.08-5.85ZM257.93-11.2Q261.03-11.85 262.55-13.7 264.08-15.55 264.08-17.28 264.08-19 263.15-19.63 262.23-20.25 261.13-20.25L261.13-20.25Q258.78-20.25 257-17.63 255.23-15 255.23-11.38 255.23-7.75 256.95-5.98 258.68-4.2 261.23-4.2L261.23-4.2Q264.98-4.2 268.43-6.8 271.88-9.4 274.03-13.6L274.03-13.6Q275.13-12.55 276.03-11L276.03-11Q274.38-7.25 270.18-3.65L270.18-3.65Q268.08-1.9 265.2-0.8 262.33 0.3 259.28 0.3L259.28 0.3Q254.28 0.3 251.38-2.75L251.38-2.75Q248.28-6.05 248.28-11.2 248.28-16.35 252.15-20.2 256.03-24.05 261.43-24.05L261.43-24.05Q265.28-24.05 267.68-22.38 270.08-20.7 270.13-17.85L270.13-17.85Q270.13-14 267.05-11.6 263.98-9.2 258.63-8.25L258.63-8.25 257.93-11.2ZM290.75-8.95Q289.17-4.9 286.25-2.33 283.32 0.25 279.57 0.25 275.82 0.25 273.95-2.23 272.07-4.7 272.07-7.9L272.07-7.9Q272.07-8.55 272.12-9.2L272.12-9.2 273.82-23.45Q275.42-24.05 277.22-24.05L277.22-24.05Q280.52-24.05 280.52-21.6L280.52-21.6Q280.52-21.5 279.7-14.93 278.87-8.35 278.87-7.3L278.87-7.3Q278.87-4.45 281.62-4.45L281.62-4.45Q283.97-4.45 285.57-7.1L285.57-7.1Q288.37-11.9 288.52-17.95L288.52-17.95 288.07-17.95Q285.97-17.95 284.87-18.9L284.87-18.9Q283.62-20 283.62-21.55 283.62-23.1 284.57-24.05L284.57-24.05Q285.72-25.05 287.32-25.05L287.32-25.05Q291.12-25.05 292.07-21.1L292.07-21.1Q293.57-21.3 294.22-21.5L294.22-21.5 294.22-18.65 292.37-18.35 292.37-17.5Q292.32-13 290.75-8.95ZM286.47-21.55L286.47-21.55Q286.47-20.7 287.92-20.7L287.92-20.7Q288.07-20.7 288.22-20.7L288.22-20.7Q287.87-22.05 287.17-22.05 286.47-22.05 286.47-21.55ZM298.42-36.83Q299.57-38 301.22-38 302.87-38 304.05-36.83 305.22-35.65 305.22-34 305.22-32.35 304.05-31.2 302.87-30.05 301.22-30.05 299.57-30.05 298.42-31.2 297.27-32.35 297.27-34 297.27-35.65 298.42-36.83ZM296.37-22.15Q296.87-23.05 298.27-23.53 299.67-24 301.05-24 302.42-24 303.47-23.65L303.47-23.65Q301.52-8.6 301.52-8.45L301.52-8.45Q301.27-7.45 301.27-6.78 301.27-6.1 301.37-5.6L301.37-5.6Q301.57-4.3 303.2-4.3 304.82-4.3 306.2-6.43 307.57-8.55 308.27-11.25L308.27-11.25Q308.62-11.05 309.37-10.05 310.12-9.05 310.27-8.55L310.27-8.55Q309.27-4.55 306.87-2.1L306.87-2.1Q304.47 0.35 301.12 0.35 297.77 0.35 296.15-1.3 294.52-2.95 294.52-5.55L294.52-5.55Q294.52-6.1 294.57-6.7L294.57-6.7 296.37-22.15ZM315.47-11.2Q318.57-11.85 320.09-13.7 321.62-15.55 321.62-17.28 321.62-19 320.69-19.63 319.77-20.25 318.67-20.25L318.67-20.25Q316.32-20.25 314.54-17.63 312.77-15 312.77-11.38 312.77-7.75 314.49-5.98 316.22-4.2 318.77-4.2L318.77-4.2Q322.52-4.2 325.97-6.8 329.42-9.4 331.57-13.6L331.57-13.6Q332.67-12.55 333.57-11L333.57-11Q331.92-7.25 327.72-3.65L327.72-3.65Q325.62-1.9 322.74-0.8 319.87 0.3 316.82 0.3L316.82 0.3Q311.82 0.3 308.92-2.75L308.92-2.75Q305.82-6.05 305.82-11.2 305.82-16.35 309.69-20.2 313.57-24.05 318.97-24.05L318.97-24.05Q322.82-24.05 325.22-22.38 327.62-20.7 327.67-17.85L327.67-17.85Q327.67-14 324.59-11.6 321.52-9.2 316.17-8.25L316.17-8.25 315.47-11.2ZM349.67-7.95L349.67-7.95Q349.67-4.35 352.72-4.35L352.72-4.35Q352.82-4.35 352.87-4.35L352.87-4.35Q354.27-4.35 355.37-5.85 356.47-7.35 357.02-9.6L357.02-9.6Q358.22-14.2 358.22-17.95L358.22-17.95 357.77-17.95Q355.67-17.95 354.52-18.9L354.52-18.9Q353.32-20 353.32-21.55 353.32-23.1 354.27-24.05L354.27-24.05Q355.42-25.1 357.12-25.1L357.12-25.1Q360.82-25.1 362.12-21.3L362.12-21.3Q365.62-22.15 369.52-23.65L369.52-23.65 369.52-20.8Q365.82-19.4 362.62-18.65L362.62-18.65Q362.67-18.25 362.67-17.5L362.67-17.5Q362.47-7.15 357.82-2.5L357.82-2.5Q355.07 0.25 350.69 0.25 346.32 0.25 344.17-3.45L344.17-3.45Q341.72 0.3 336.67 0.3L336.67 0.3Q333.67 0.3 331.74-1.83 329.82-3.95 329.82-6.85L329.82-6.85Q329.82-7.35 329.87-8.05L329.87-8.05Q330.92-16.75 331.62-23.45L331.62-23.45Q333.42-24.05 334.77-24.05L334.77-24.05Q338.32-24.05 338.32-21.6L338.32-21.6Q338.32-20.65 337.57-15.05L337.57-15.05Q336.62-8 336.62-7.13 336.62-6.25 337.29-5.4 337.97-4.55 339.24-4.55 340.52-4.55 341.52-5.7 342.52-6.85 342.97-8.5L342.97-8.5 344.72-23.45Q346.32-24.05 348.12-24.05L348.12-24.05Q351.37-24.05 351.37-21.6L351.37-21.6Q351.37-20.7 350.67-15.75L350.67-15.75Q349.67-8.75 349.67-7.95ZM356.17-21.55L356.17-21.55Q356.17-20.7 357.62-20.7L357.62-20.7Q357.77-20.7 357.92-20.7L357.92-20.7Q357.57-22.05 356.87-22.05 356.17-22.05 356.17-21.55ZM386.26-15.3L386.26-15.3Q390.21-12.4 390.21-8.45 390.21-4.5 387.11-2.1 384.01 0.3 379.31 0.3L379.31 0.3Q376.26 0.3 374.24-1.23 372.21-2.75 372.21-5 372.21-7.25 373.71-8.58 375.21-9.9 377.46-10.2L377.46-10.2Q376.41-8.7 376.41-7.33 376.41-5.95 377.36-5.1L377.36-5.1Q378.31-4.25 379.76-4.25 381.21-4.25 382.16-5.33 383.11-6.4 383.11-7.8L383.11-7.8Q383.11-10.1 380.96-11.9L380.96-11.9Q379.66-12.95 378.16-13.88 376.66-14.8 376.56-14.85L376.56-14.85Q376.36-15 376.16-15.1L376.16-15.1Q375.26-14.05 373.56-12.23 371.86-10.4 370.86-9.3L370.86-9.3Q368.06-6.25 367.71-4.2L367.71-4.2Q367.61-3.8 367.61-2.68 367.61-1.55 368.29-0.35 368.96 0.85 369.91 1.45 370.86 2.05 371.79 2.43 372.71 2.8 373.39 2.95 374.06 3.1 374.06 3.15L374.06 3.15Q374.06 3.5 372.96 3.95L372.96 3.95Q370.91 4.7 368.69 4.7 366.46 4.7 364.36 3.1L364.36 3.1Q361.51 0.9 361.51-2.75L361.51-2.75Q361.51-5 362.66-7.2L362.66-7.2Q364.71-11.1 372.26-17.9L372.26-17.9Q370.41-19.75 370.41-21.85 370.41-23.95 371.99-25.4 373.56-26.85 375.71-26.85L375.71-26.85Q377.66-26.85 379.11-25.3L379.11-25.3Q380.06-24.25 380.06-22.65 380.06-21.05 379.01-19.05L379.01-19.05Q384.36-16.65 386.26-15.3ZM375.41-20.95L375.41-20.95Q376.61-22.2 376.61-22.75L376.61-22.75Q376.61-24 375.51-24.1L375.51-24.1Q374.26-24.1 374.26-22.7L374.26-22.7Q374.26-21.85 375.41-20.95Z" opacity="1" transform="matrix(1,0,0,1,0,0)" fill="#ffffff" class="undefined-text-0" data-fill-palette-color="primary" id="SvgjsPath2075" stroke-width="7" stroke="black" stroke-linejoin="round"></path></svg></g></svg></g></svg></g></svg></g></svg></g></svg></g></svg></g></mask></svg></g><defs></defs></svg><rect width="395.52" height="247.2" fill="none" stroke="none" visibility="hidden"></rect></g></svg></g></svg>